<?xml version="1.0" standalone="no"?>
<!DOCTYPE svg PUBLIC "-//W3C//DTD SVG 20010904//EN"
 "http://www.w3.org/TR/2001/REC-SVG-20010904/DTD/svg10.dtd">
<svg version="1.0" xmlns="http://www.w3.org/2000/svg"
 width="774.000000pt" height="774.000000pt" viewBox="0 0 774.000000 774.000000"
 preserveAspectRatio="xMidYMid meet">
<metadata>
Created by potrace 1.14, written by Peter Selinger 2001-2017
</metadata>
<g transform="translate(0.000000,774.000000) scale(0.100000,-0.100000)"
fill="#000000" stroke="none">
<path d="M3665 7434 c-70 -15 -148 -40 -205 -66 -167 -76 -181 -88 -182 -155
0 -41 10 -149 17 -173 3 -8 7 -32 11 -54 3 -21 8 -48 10 -60 2 -11 6 -32 9
-46 3 -14 7 -34 9 -45 2 -11 7 -40 12 -65 4 -25 8 -47 9 -50 1 -3 5 -27 10
-55 5 -27 10 -52 10 -55 6 -21 19 -89 21 -105 1 -11 3 -20 4 -20 1 0 3 -11 6
-25 2 -14 8 -45 14 -70 5 -25 12 -58 14 -75 3 -16 7 -41 11 -55 3 -14 7 -38
10 -55 2 -16 8 -51 13 -77 10 -51 0 -87 -14 -47 -4 13 -8 26 -9 29 0 3 -3 10
-7 16 -4 6 -9 21 -12 35 -2 13 -16 71 -31 129 -15 58 -29 113 -31 123 -2 10
-5 26 -8 35 -3 9 -7 28 -10 42 -8 38 -32 143 -61 260 -14 58 -28 120 -32 138
-5 31 -19 49 -29 39 -11 -10 -23 -109 -38 -317 -10 -137 -17 -234 -21 -300 -2
-36 -6 -108 -9 -160 -4 -52 -8 -129 -11 -170 -2 -41 -7 -119 -10 -173 -4 -54
-8 -130 -10 -169 -2 -39 -7 -74 -12 -78 -4 -4 -53 -31 -108 -60 -137 -71 -185
-100 -185 -111 0 -5 -5 -9 -11 -9 -25 0 -247 -199 -325 -293 -37 -44 -109
-146 -121 -172 -7 -16 -22 -45 -33 -62 -11 -18 -18 -33 -15 -33 2 0 -5 -19
-15 -42 -51 -117 -62 -297 -27 -418 16 -53 78 -199 105 -245 8 -14 -27 14 -72
57 -21 21 -42 38 -47 38 -5 0 -9 -15 -10 -32 -1 -18 -2 -49 -4 -68 -30 -351
-23 -1722 10 -1922 10 -59 14 -66 96 -144 40 -38 97 -93 128 -123 31 -29 89
-83 129 -120 41 -36 91 -82 111 -101 52 -48 230 -212 251 -230 10 -8 55 -50
101 -92 46 -42 95 -86 108 -98 14 -11 59 -51 100 -89 150 -135 274 -241 283
-241 10 0 6 53 -8 125 -3 17 -7 44 -9 60 -7 64 -15 121 -21 145 -2 14 -7 42
-9 64 -3 21 -9 64 -14 95 -6 31 -12 73 -15 94 -9 56 -17 107 -22 131 -2 11 -7
41 -9 66 -3 25 -8 52 -10 60 -3 8 -7 33 -10 55 -3 22 -14 90 -25 150 -19 109
-30 180 -35 222 -2 12 -6 34 -9 50 -5 27 -11 58 -20 121 -12 77 -19 119 -22
137 -15 79 -37 215 -39 240 -2 17 -4 30 -5 30 -1 0 -3 15 -5 33 -3 39 6 30
-125 131 -124 96 -107 82 -340 266 -102 81 -196 156 -210 168 -19 17 -33 48
-54 127 -50 190 -66 274 -52 287 7 7 106 -33 258 -106 140 -66 235 -107 473
-204 260 -105 270 -111 288 -154 15 -39 63 -226 71 -278 16 -103 25 -235 16
-235 -3 0 -5 -26 -5 -58 -1 -70 -13 -206 -21 -227 -8 -21 18 -73 59 -115 35
-37 120 -109 144 -123 13 -8 98 53 188 135 l30 28 1 212 c2 222 10 418 19 484
12 79 15 90 36 147 13 34 32 65 48 76 14 10 87 40 161 66 186 65 290 109 525
220 200 95 223 105 233 105 5 0 23 7 38 15 27 14 29 14 32 -4 2 -11 -15 -91
-38 -178 -38 -143 -65 -206 -101 -233 -3 -3 -39 -35 -80 -72 -41 -36 -157
-132 -259 -213 -102 -80 -194 -154 -205 -163 -11 -9 -39 -32 -61 -49 -31 -25
-43 -42 -48 -70 -9 -58 -15 -95 -22 -133 -3 -19 -8 -46 -10 -60 -2 -14 -7 -41
-11 -60 -3 -19 -8 -46 -9 -60 -1 -14 -5 -36 -8 -50 -5 -25 -33 -188 -42 -245
-2 -16 -7 -41 -9 -55 -3 -14 -7 -38 -10 -55 -2 -16 -16 -100 -30 -185 -14 -85
-28 -168 -31 -185 -2 -16 -9 -55 -14 -85 -11 -65 -19 -122 -26 -169 -2 -19 -7
-48 -10 -65 -3 -17 -7 -42 -9 -56 -3 -23 -7 -44 -19 -106 -2 -11 -7 -45 -10
-75 -3 -30 -8 -65 -11 -79 -3 -14 -8 -45 -11 -70 -3 -25 -8 -53 -9 -62 -6 -30
29 -8 145 92 61 53 174 155 233 210 39 36 82 76 97 90 15 14 67 62 116 107 49
45 100 91 114 103 177 153 603 577 619 616 22 56 31 414 31 1249 0 576 -4 743
-17 756 -5 5 -19 2 -33 -6 -44 -25 -51 -28 -57 -22 -6 6 15 67 26 77 3 3 14
27 23 53 14 39 17 73 14 170 -2 67 -7 138 -11 157 -30 154 -98 325 -167 422
-82 114 -231 255 -363 343 -33 22 -62 43 -65 46 -3 4 -23 16 -45 28 -22 11
-58 32 -80 45 -22 14 -59 35 -82 47 -24 13 -43 25 -44 28 0 3 -2 80 -4 171 -5
220 -14 417 -30 630 -21 292 -32 408 -42 465 -9 53 -10 58 -11 73 -4 28 -21
-1 -42 -68 -12 -38 -21 -72 -21 -75 0 -2 -6 -23 -14 -45 -8 -22 -12 -40 -10
-40 3 0 0 -11 -5 -26 -6 -14 -12 -37 -15 -52 -9 -51 -14 -74 -20 -92 -3 -10
-7 -27 -9 -37 -2 -10 -14 -56 -26 -103 -12 -47 -24 -96 -26 -110 -12 -66 -62
-224 -71 -227 -11 -4 5 130 27 217 5 19 12 49 14 65 3 17 8 41 11 55 3 14 11
50 16 80 15 77 17 85 19 88 2 1 3 10 4 20 1 9 5 31 9 47 4 17 9 40 12 53 2 13
6 31 9 40 3 9 8 33 10 52 3 19 10 60 16 90 7 30 13 66 15 80 2 14 6 41 10 60
3 19 8 51 11 70 2 19 6 51 9 70 2 19 7 62 10 96 l6 61 -53 23 c-29 12 -77 34
-107 47 -138 64 -225 85 -356 88 -60 2 -119 1 -130 -1z m240 -1583 c22 -7 46
-13 53 -13 6 -1 12 -5 12 -9 0 -4 10 -9 23 -13 24 -6 67 -41 67 -56 0 -9 -15
-5 -115 31 -82 29 -236 31 -315 4 -30 -11 -58 -18 -62 -17 -5 1 -8 -2 -8 -7 0
-11 -49 -21 -55 -11 -12 19 101 81 173 96 8 1 16 5 19 8 9 9 168 -1 208 -13z
m-461 -265 c-5 -14 -85 -56 -134 -71 -45 -13 -214 -88 -252 -112 -21 -13 -40
-23 -43 -23 -6 0 -158 -93 -165 -101 -3 -3 -27 -21 -55 -39 -27 -19 -56 -40
-65 -46 -165 -134 -204 -158 -180 -114 15 29 168 180 182 180 6 0 9 3 5 6 -3
4 18 25 47 48 109 84 172 126 180 118 3 -3 6 -1 6 5 0 11 155 86 178 86 6 0
12 4 12 9 0 4 10 8 23 8 13 0 28 5 35 12 7 7 12 9 12 6 0 -3 34 4 75 16 96 28
147 32 139 12z m761 0 c11 -3 20 -5 20 -6 0 -1 13 -4 28 -6 38 -6 158 -50 235
-85 35 -16 65 -29 68 -29 2 0 23 -12 47 -27 46 -30 50 -34 86 -63 13 -11 27
-20 30 -20 3 0 20 -13 36 -28 17 -15 40 -35 53 -44 59 -41 246 -220 265 -255
14 -23 -42 9 -108 62 -30 25 -57 45 -60 45 -3 0 -16 9 -28 21 -30 28 -203 144
-302 201 -76 44 -307 158 -321 158 -16 0 -164 75 -164 83 0 8 58 4 115 -7z"/>
</g>
</svg>
